<svg xmlns="http://www.w3.org/2000/svg" viewBox="0 0 380 80" width="380" height="80">
  <defs>
    <linearGradient id="markbg" x1="0%" y1="0%" x2="100%" y2="100%">
      <stop offset="0%" style="stop-color:#10b98118"/>
      <stop offset="100%" style="stop-color:transparent"/>
    </linearGradient>
  </defs>
  <!-- Dark background -->
  <rect width="380" height="80" fill="#030507"/>
  <!-- Outer subtle border -->
  <rect x="0.5" y="0.5" width="379" height="79" fill="none" stroke="#10b981" stroke-width="0.5" opacity="0.15"/>
  <!-- Icon mark: square with emerald border, no rounding (46x46 at 17,17) -->
  <rect x="17" y="17" width="46" height="46" fill="url(#markbg)" stroke="#10b981" stroke-width="1.5"/>
  <!-- Brain icon inside mark -->
  <g transform="translate(22, 22) scale(1.54)">
    <path d="M10 5 C6 5 3 7.5 3 11 C3 13 4 14.5 5.5 15.5 C5 16 4.5 16.8 4.5 17.5 C4.5 19.5 6 21 8 21 C8.5 21 9 20.9 9.5 20.7 L9.5 22 L10.5 22 L10.5 5 Z"
          fill="none" stroke="#10b981" stroke-width="1.2" stroke-linecap="round" stroke-linejoin="round"/>
    <path d="M10 5 C14 5 17 7.5 17 11 C17 13 16 14.5 14.5 15.5 C15 16 15.5 16.8 15.5 17.5 C15.5 19.5 14 21 12 21 C11.5 21 11 20.9 10.5 20.7 L10.5 22 L9.5 22 L9.5 5 Z"
          fill="none" stroke="#10b981" stroke-width="1.2" stroke-linecap="round" stroke-linejoin="round"/>
    <line x1="10" y1="8" x2="10" y2="20" stroke="#10b981" stroke-width="0.7" opacity="0.5"/>
    <line x1="6" y1="12" x2="14" y2="12" stroke="#10b981" stroke-width="0.7" opacity="0.4"/>
  </g>
  <!-- Corner marks on icon -->
  <path d="M21 21 L17 21 L17 25" fill="none" stroke="#10b981" stroke-width="1" opacity="0.7"/>
  <path d="M59 21 L63 21 L63 25" fill="none" stroke="#10b981" stroke-width="1" opacity="0.7"/>
  <path d="M21 59 L17 59 L17 55" fill="none" stroke="#10b981" stroke-width="1" opacity="0.7"/>
  <path d="M59 59 L63 59 L63 55" fill="none" stroke="#10b981" stroke-width="1" opacity="0.7"/>
  <!-- ZentarAI text -->
  <text x="82" y="44" font-family="system-ui, sans-serif" font-size="26"
        font-weight="700" fill="white" letter-spacing="-0.3">Zentar<tspan fill="#10b981">AI</tspan></text>
  <!-- Tagline -->
  <text x="82" y="61" font-family="'Courier New', monospace" font-size="8.5"
        fill="#10b981" letter-spacing="1.5" opacity="0.6">SIGNAL INTELLIGENCE PLATFORM</text>
</svg>
