<svg xmlns="http://www.w3.org/2000/svg" viewBox="0 0 200 200" width="200" height="200">
  <defs>
    <linearGradient id="markbg" x1="0%" y1="0%" x2="100%" y2="100%">
      <stop offset="0%" style="stop-color:#10b98120"/>
      <stop offset="100%" style="stop-color:transparent"/>
    </linearGradient>
  </defs>
  <!-- Dark background -->
  <rect width="200" height="200" fill="#030507"/>
  <!-- Outer border -->
  <rect x="1" y="1" width="198" height="198" fill="none" stroke="#10b981" stroke-width="1" opacity="0.2"/>
  <!-- Icon mark: square with emerald border, no rounding (68x68 centered at 100,82) -->
  <rect x="66" y="32" width="68" height="68" fill="url(#markbg)" stroke="#10b981" stroke-width="1.5"/>
  <!-- Brain icon scaled inside icon mark -->
  <g transform="translate(72, 38) scale(2.15)">
    <path d="M10 5 C6 5 3 7.5 3 11 C3 13 4 14.5 5.5 15.5 C5 16 4.5 16.8 4.5 17.5 C4.5 19.5 6 21 8 21 C8.5 21 9 20.9 9.5 20.7 L9.5 22 L10.5 22 L10.5 5 Z"
          fill="none" stroke="#10b981" stroke-width="1.1" stroke-linecap="round" stroke-linejoin="round"/>
    <path d="M10 5 C14 5 17 7.5 17 11 C17 13 16 14.5 14.5 15.5 C15 16 15.5 16.8 15.5 17.5 C15.5 19.5 14 21 12 21 C11.5 21 11 20.9 10.5 20.7 L10.5 22 L9.5 22 L9.5 5 Z"
          fill="none" stroke="#10b981" stroke-width="1.1" stroke-linecap="round" stroke-linejoin="round"/>
    <line x1="10" y1="8" x2="10" y2="20" stroke="#10b981" stroke-width="0.7" opacity="0.5"/>
    <line x1="6" y1="12" x2="14" y2="12" stroke="#10b981" stroke-width="0.7" opacity="0.4"/>
  </g>
  <!-- Corner marks on icon -->
  <path d="M70 36 L66 36 L66 40" fill="none" stroke="#10b981" stroke-width="1.2" opacity="0.7"/>
  <path d="M130 36 L134 36 L134 40" fill="none" stroke="#10b981" stroke-width="1.2" opacity="0.7"/>
  <path d="M70 96 L66 96 L66 92" fill="none" stroke="#10b981" stroke-width="1.2" opacity="0.7"/>
  <path d="M130 96 L134 96 L134 92" fill="none" stroke="#10b981" stroke-width="1.2" opacity="0.7"/>
  <!-- ZentarAI text -->
  <text x="100" y="148" font-family="system-ui, sans-serif" font-size="22"
        font-weight="700" fill="white" text-anchor="middle" letter-spacing="-0.3">Zentar<tspan fill="#10b981">AI</tspan></text>
  <!-- Tagline -->
  <text x="100" y="165" font-family="'Courier New', monospace" font-size="7.5"
        fill="#10b981" text-anchor="middle" letter-spacing="2.5" opacity="0.6">SIGNAL INTELLIGENCE PLATFORM</text>
  <!-- Scan line decoration -->
  <line x1="30" y1="174" x2="170" y2="174" stroke="#10b981" stroke-width="0.5" opacity="0.15"/>
</svg>
